<svg width="26" height="32" viewBox="0 0 26 32" fill="none" xmlns="http://www.w3.org/2000/svg">
<path d="M13 0L13.1901 0.0112C13.5529 0.0533182 13.8906 0.214527 14.1489 0.468818C14.4071 0.723109 14.5708 1.05565 14.6136 1.4128L14.625 1.6V8L14.6331 8.24C14.6913 9.00187 15.0244 9.71812 15.5721 10.2592C16.1199 10.8004 16.8463 11.1307 17.6199 11.1904L17.875 11.2H24.375L24.5651 11.2112C24.9279 11.2533 25.2656 11.4145 25.5239 11.6688C25.7821 11.9231 25.9458 12.2557 25.9886 12.6128L26 12.8V27.2C26.0001 28.4243 25.525 29.6024 24.6719 30.4932C23.8189 31.384 22.6523 31.9202 21.411 31.992L21.125 32H4.875C3.63153 32.0001 2.43504 31.5323 1.53033 30.6923C0.625614 29.8524 0.0810753 28.7038 0.00812519 27.4816L7.57323e-09 27.2V4.8C-6.92603e-05 3.57566 0.475028 2.39758 1.32809 1.50678C2.18114 0.615989 3.34767 0.079828 4.589 0.00800018L4.875 0H13ZM8.9375 12.8C7.86006 12.8 6.82675 13.2214 6.06488 13.9716C5.30301 14.7217 4.875 15.7391 4.875 16.8V21.6C4.875 22.6609 5.30301 23.6783 6.06488 24.4284C6.82675 25.1786 7.86006 25.6 8.9375 25.6C10.0149 25.6 11.0483 25.1786 11.8101 24.4284C12.572 23.6783 13 22.6609 13 21.6C13 21.1757 12.8288 20.7687 12.524 20.4686C12.2193 20.1686 11.806 20 11.375 20C10.944 20 10.5307 20.1686 10.226 20.4686C9.92121 20.7687 9.75 21.1757 9.75 21.6C9.75 21.8122 9.6644 22.0157 9.51202 22.1657C9.35965 22.3157 9.15299 22.4 8.9375 22.4C8.72201 22.4 8.51535 22.3157 8.36298 22.1657C8.2106 22.0157 8.125 21.8122 8.125 21.6V16.8C8.125 16.5878 8.2106 16.3843 8.36298 16.2343C8.51535 16.0843 8.72201 16 8.9375 16C9.15299 16 9.35965 16.0843 9.51202 16.2343C9.6644 16.3843 9.75 16.5878 9.75 16.8C9.75 17.2243 9.92121 17.6313 10.226 17.9314C10.5307 18.2314 10.944 18.4 11.375 18.4C11.806 18.4 12.2193 18.2314 12.524 17.9314C12.8288 17.6313 13 17.2243 13 16.8C13 16.2747 12.8949 15.7546 12.6908 15.2693C12.4866 14.784 12.1874 14.343 11.8101 13.9716C11.4329 13.6001 10.985 13.3055 10.4922 13.1045C9.99927 12.9035 9.47099 12.8 8.9375 12.8ZM19.8949 12.848C19.4768 12.7449 19.0343 12.8095 18.6646 13.0277C18.295 13.2458 18.0285 13.5996 17.9237 14.0112L17.0625 17.4016L16.2013 14.0112C16.1506 13.8061 16.0593 13.6129 15.9325 13.4427C15.8057 13.2725 15.646 13.1286 15.4625 13.0195C15.279 12.9103 15.0754 12.838 14.8634 12.8067C14.6514 12.7753 14.4352 12.7856 14.2273 12.8369C14.0193 12.8882 13.8238 12.9795 13.6518 13.1055C13.4798 13.2316 13.3349 13.3899 13.2254 13.5713C13.1158 13.7527 13.0438 13.9537 13.0135 14.1627C12.9832 14.3716 12.9952 14.5844 13.0487 14.7888L15.4862 24.3888C15.8958 26.0048 18.2292 26.0048 18.6388 24.3888L21.0762 14.7888C21.181 14.3772 21.1153 13.9415 20.8938 13.5775C20.6722 13.2135 20.3129 12.9511 19.8949 12.848ZM17.8734 1.5984L24.375 8H17.875L17.8734 1.5984Z" fill="#262A2E"/>
</svg>
