<svg width="64" height="47" viewBox="0 0 64 47" fill="none" xmlns="http://www.w3.org/2000/svg">
<path d="M32.4828 43.0114L6.96576 24.9685C4.16655 22.9892 2.26775 19.9796 1.68709 16.602C1.10643 13.2243 1.89147 9.75523 3.8695 6.95782C5.84753 4.16041 8.85653 2.26385 12.2345 1.68536C15.6126 1.10688 19.0829 1.89385 21.8821 3.87316L58.1692 29.5316C59.0932 30.1852 59.8794 31.0143 60.483 31.9716C61.0866 32.9288 61.4959 33.9954 61.6873 35.1105C61.8787 36.2256 61.8486 37.3673 61.5987 38.4705C61.3488 39.5737 60.8839 40.6168 60.2307 41.5401C59.5775 42.4634 58.7487 43.249 57.7916 43.8519C56.8346 44.4549 55.768 44.8633 54.6527 45.054C53.5375 45.2447 52.3955 45.214 51.2919 44.9634C50.1884 44.7129 49.1448 44.2475 48.2209 43.5939L11.9072 17.9167C10.9984 17.2449 10.3926 16.2426 10.2153 15.1268C10.038 14.011 10.3062 12.8705 10.9622 11.9511C11.6182 11.0316 12.6094 10.4069 13.7222 10.2116C14.835 10.0162 15.9803 10.2658 16.9113 10.9067L42.8164 29.224M11.9399 17.9373L11.9068 17.9139" stroke="#122D5A" stroke-width="3" stroke-linecap="round" stroke-linejoin="round"/>
</svg>
