<svg width="348" height="212" viewBox="0 0 348 212" fill="none" xmlns="http://www.w3.org/2000/svg">
<path d="M325.288 174.386L325.293 174.361L347.617 63.3984C347.606 43.3182 332.706 27.082 314.374 27.082H300.727V24.3926C300.726 11.0378 290.822 0.250254 278.649 0.25H225.059C212.886 0.250219 202.981 11.0378 202.981 24.3926V26.832C202.981 35.032 196.891 41.7177 189.333 41.7178H117.881C110.4 41.7178 104.359 35.1676 104.236 27.082H77.6896C59.3503 27.082 44.4465 43.3308 44.4464 63.4219V63.4473L44.4415 63.4717L22.1183 174.434C22.1298 194.514 37.0282 210.75 55.3605 210.75H292.045C310.384 210.75 325.288 194.501 325.288 174.41V174.386Z" fill="#CF8895" stroke="white" stroke-width="0.5"/>
<path d="M303.094 76.515L325.38 177.918C325.38 196.38 310.413 211.347 291.951 211.347H55.7158C37.2532 211.347 22.2863 196.38 22.2863 177.918L0 76.515C0 58.0524 14.9669 43.0855 33.4295 43.0855H46.8013V40.8569C46.8013 28.5485 56.7792 18.5706 69.0876 18.5706H122.575C134.883 18.5706 144.861 28.5485 144.861 40.8569V43.0855C144.861 50.4705 150.848 56.4573 158.233 56.4573H229.549C236.934 56.4573 242.921 50.4705 242.921 43.0855H269.664C288.127 43.0855 303.094 58.0524 303.094 76.515Z" fill="#D89EA8"/>
<path d="M127.052 144.42L102.988 129.572V124.836L127.052 109.988L130.956 116.26L108.94 129.764V124.58L130.956 138.148L127.052 144.42ZM145.031 152.292L138.183 149.092L162.503 99.1718L169.351 102.436L145.031 152.292ZM180.259 144.42L176.675 138.468L198.691 124.9V129.764L176.675 116.26L180.259 110.244L204.643 125.092V129.572L180.259 144.42Z" fill="#262A2E"/>
</svg>
