<svg width="426" height="266" viewBox="0 0 426 266" fill="none" xmlns="http://www.w3.org/2000/svg">
<path d="M372.263 231.891L372.269 231.865L394.549 130.489C394.535 112.176 379.685 97.3352 361.37 97.3352H347.749V94.8567C347.748 82.6865 337.882 72.8206 325.711 72.8206H272.224C260.054 72.8208 250.188 82.6866 250.188 94.8567V97.0852C250.188 104.608 244.09 110.707 236.567 110.707H165.25C157.811 110.707 151.766 104.743 151.632 97.3352H125.135C106.811 97.3352 91.9556 112.19 91.9556 130.515V130.542L91.9497 130.569L69.6704 231.943C69.6839 250.256 84.5321 265.097 102.848 265.097H339.083C357.408 265.097 372.263 250.242 372.263 231.917V231.891Z" fill="#CF8895" stroke="white" stroke-width="0.5"/>
<path d="M370.284 252.001C368.589 252.002 366.923 251.559 365.455 250.717L350.089 241.682C347.796 240.407 348.913 239.957 349.672 239.694C352.111 238.947 354.447 237.899 356.623 236.574C356.805 236.489 357.006 236.452 357.207 236.467C357.407 236.482 357.601 236.548 357.768 236.659L369.575 243.626C369.795 243.741 370.04 243.802 370.289 243.802C370.537 243.802 370.782 243.741 371.002 243.626L417.047 217.229C417.263 217.102 417.442 216.92 417.566 216.703C417.689 216.485 417.753 216.239 417.751 215.99V163.187C417.752 162.934 417.687 162.684 417.562 162.463C417.437 162.242 417.256 162.057 417.038 161.926L370.993 135.551C370.777 135.428 370.531 135.364 370.282 135.364C370.032 135.364 369.787 135.428 369.571 135.551L323.553 161.935C323.333 162.064 323.151 162.247 323.024 162.466C322.896 162.685 322.828 162.934 322.826 163.187V215.967C322.829 216.216 322.897 216.459 323.024 216.673C323.15 216.888 323.331 217.065 323.548 217.189L336.177 224.428C343.021 227.824 347.213 223.821 347.213 219.801V167.689C347.213 167.334 347.354 166.994 347.607 166.744C347.859 166.493 348.202 166.352 348.559 166.352H354.393C354.75 166.352 355.092 166.493 355.345 166.744C355.597 166.994 355.739 167.334 355.739 167.689V219.805C355.739 228.876 350.767 234.069 342.105 234.069C338.369 234.131 334.692 233.139 331.501 231.207L319.397 224.312C317.929 223.46 316.711 222.242 315.864 220.778C315.017 219.314 314.57 217.656 314.568 215.967V163.187C314.563 161.496 315.007 159.832 315.854 158.365C316.702 156.898 317.924 155.678 319.397 154.829L365.446 128.424C366.93 127.619 368.594 127.198 370.284 127.198C371.975 127.198 373.638 127.619 375.122 128.424L421.167 154.829C422.634 155.679 423.853 156.896 424.7 158.358C425.548 159.82 425.996 161.477 426 163.165V215.967C425.998 217.656 425.551 219.315 424.703 220.779C423.855 222.243 422.636 223.461 421.167 224.312L375.122 250.717C373.651 251.561 371.982 252.004 370.284 252.001Z" fill="#83CD29"/>
<path d="M361.551 198.303C361.551 197.948 361.693 197.608 361.945 197.357C362.198 197.106 362.54 196.965 362.897 196.965H368.853C369.171 196.966 369.478 197.079 369.721 197.284C369.963 197.489 370.124 197.772 370.176 198.084C371.074 204.106 373.767 207.142 385.942 207.142C395.64 207.142 399.773 204.962 399.773 199.849C399.773 196.903 398.602 194.714 383.528 193.248C370.926 192.009 363.135 189.236 363.135 179.234C363.135 170.007 370.966 164.502 384.093 164.502C398.844 164.502 406.146 169.588 407.07 180.5C407.085 180.682 407.061 180.865 407.001 181.038C406.941 181.211 406.846 181.369 406.722 181.504C406.598 181.639 406.448 181.747 406.28 181.822C406.112 181.897 405.931 181.937 405.747 181.939H399.751C399.45 181.935 399.159 181.831 398.925 181.644C398.691 181.456 398.527 181.196 398.458 180.905C397.027 174.571 393.522 172.548 384.098 172.548C373.506 172.548 372.277 176.212 372.277 178.957C372.277 182.283 373.731 183.254 388.029 185.131C402.179 186.99 408.902 189.62 408.902 199.497C408.902 209.464 400.536 215.169 385.947 215.169C365.774 215.196 361.551 206.01 361.551 198.303Z" fill="#83CD29"/>
<path d="M57.5673 166.833L17.6227 181.703C7.88993 185.326 2.93708 196.153 6.56014 205.886L21.4298 245.831C25.0529 255.563 35.8799 260.516 45.6126 256.893L85.5573 242.023C95.29 238.4 100.243 227.573 96.6198 217.841L81.7501 177.896C78.1271 168.163 67.3001 163.21 57.5673 166.833Z" fill="#242938"/>
<mask id="mask0_19_73" style="mask-type:luminance" maskUnits="userSpaceOnUse" x="15" y="175" width="73" height="74">
<path d="M15.3158 195.269L68.1838 175.589L87.8642 228.457L34.9962 248.137L15.3158 195.269Z" fill="white"/>
</mask>
<g mask="url(#mask0_19_73)">
<path fill-rule="evenodd" clip-rule="evenodd" d="M79.3433 218.323C76.4381 219.313 74.3171 220.438 72.7404 221.921C72.2825 222.337 71.4187 222.659 71.5998 223.363C71.9935 223.54 72.2014 223.992 72.6004 224.293C73.2975 224.847 74.4121 225.529 75.2808 225.775L78.1938 226.563C79.9149 226.897 81.6832 226.809 83.3686 227.158C84.3461 227.364 85.3762 227.713 86.3672 227.955C86.8766 228.091 87.294 228.466 87.8638 228.456L87.8236 228.348C87.4529 228.121 87.2075 227.684 86.8233 227.418L85.3579 226.784C83.7974 225.779 82.0495 225.045 80.2752 224.568C78.8318 224.21 75.9169 224.075 74.9574 222.927L74.8567 222.873C75.6168 222.499 76.4481 221.873 77.124 221.378C78.2281 220.602 79.3681 220.258 80.5058 219.468L82.0465 218.325L81.9272 218.004C81.0406 217.602 80.2539 216.919 79.3454 216.566C76.9268 215.676 74.3398 214.889 71.7754 214.379C70.3951 214.08 68.7832 214.15 67.3713 213.985C66.8587 213.932 66.1007 214.092 65.7163 213.828C64.7754 213.285 64.0306 212.381 63.2172 211.625L57.9548 206.505C56.789 205.353 55.8737 204.107 54.6051 203.114C48.6397 198.418 43.2422 196.238 35.7141 194.93C34.1051 194.675 32.403 194.941 30.5749 195.175L27.825 196.035C27.1557 195.999 26.328 195.534 25.7048 195.399C23.1764 194.876 16.8534 194.057 16.7092 198.292C16.603 200.976 19.8638 202.365 21.121 203.241C22.0393 203.835 23.1748 204.469 23.9534 205.237C24.4211 205.755 24.7415 206.368 25.2333 206.918C26.3929 208.276 27.5848 209.826 28.8856 211.011C29.5679 211.611 30.2841 212.241 31.0401 212.732C31.477 213.025 32.0446 213.009 32.3911 213.612C32.1536 214.515 32.5176 215.599 32.5628 216.601C32.771 221.121 35.1369 225.936 38.0769 228.226C38.9856 228.904 41.0753 230.365 42.6382 228.928C44.0168 227.683 42.8977 225.78 42.6998 223.819C42.649 223.351 42.4703 223.092 42.5786 222.725L42.6084 222.805L45.1871 225.222C46.9535 226.558 49.5743 227.657 51.644 228.271C52.7458 228.593 53.8419 229.447 55.0662 229.438L55.026 229.33L54.9552 229.357C54.6197 229.117 54.2421 229.093 53.8615 228.95C52.9751 228.548 51.9633 228.029 51.1937 227.502C48.9395 226.063 46.7849 224.342 44.7466 222.498C43.7583 221.605 42.8023 220.577 41.9241 219.643C41.5468 219.295 41.307 218.651 40.8691 218.571C40.6211 219.557 40.0851 220.532 40.0466 221.644C39.935 223.434 40.5693 225.355 41.0496 227.414C40.9178 227.504 40.9688 227.444 40.9342 227.548C39.6789 227.691 38.8428 226.658 38.0399 225.819C36.0169 223.683 34.3199 219.677 34.164 216.398C34.136 215.554 34.338 212.794 33.6409 212.24C33.1707 211.642 32.3071 211.516 31.7108 211.127C30.9908 210.622 30.1698 209.952 29.5665 209.322C27.9588 207.641 26.7032 205.587 25.0226 203.934C24.244 203.166 23.1305 202.482 22.1997 201.853C21.157 201.142 20.1507 200.743 19.1855 199.801C18.8567 199.468 18.3686 198.925 18.4962 198.389C18.4609 198.077 18.5631 197.908 18.8256 197.738C19.1435 197.163 20.6642 197.175 21.2108 197.214C22.7402 197.256 24.0409 197.341 25.4346 197.675C26.0712 197.845 26.864 198.324 27.5778 198.262L28.3338 197.981C29.5775 197.802 30.8078 197.151 32.0044 197.07C34.1372 196.969 36.1946 197.219 38.1013 197.609C43.9151 198.822 49.369 201.592 53.8686 205.655C54.6057 206.316 55.0648 206.999 55.7806 207.709C57.1887 209.18 58.7884 210.618 60.1806 212.053C61.5618 213.451 62.9195 214.9 64.5167 215.892C65.3359 216.442 67.6384 216.031 68.7552 216.063C69.5941 216.116 70.8152 215.99 71.6101 216.141C73.111 216.436 74.653 216.839 76.1087 217.233C76.8424 217.446 78.9741 217.67 79.3464 218.344L79.3433 218.323ZM31.1162 200.92C30.618 201.101 30.1453 201.345 29.7098 201.647L29.7396 201.727L29.8104 201.701C30.3111 202.166 30.9612 202.372 31.5067 202.738L32.9729 204.146L33.0143 204.039C33.3847 203.495 33.4242 202.829 33.1052 201.972C32.7963 201.803 32.6674 201.565 32.3946 201.382C32.0458 201.105 31.5117 201.1 31.1169 200.922L31.1162 200.92Z" fill="white"/>
</g>
<path d="M185.321 0L296.886 31.3604L265.525 142.925L153.96 111.565L185.321 0Z" fill="#F7DF1E"/>
<path d="M188.448 101.478L198.438 98.7105C199.265 102.094 200.068 104.986 203.662 105.996C207.107 106.965 209.659 106.228 211.132 100.986L221.152 65.3384L231.636 68.2854L221.574 104.081C218.522 114.94 210.767 118.094 201.48 115.483C193.093 113.126 189.446 107.415 188.448 101.478ZM225.837 110.775L235.763 108.232C236.979 112.534 239.142 116.051 244.309 117.503C248.653 118.724 252.034 117.331 252.876 114.335C253.886 110.741 251.398 108.667 247.195 105.224L244.89 103.363C238.231 98.0175 234.35 92.5629 236.75 84.0256C238.961 76.162 246.636 71.8546 255.997 74.4861C262.662 76.3596 266.803 80.0288 268.542 87.063L258.905 90.011C258.012 86.2855 256.424 84.4655 253.428 83.6234C250.358 82.7602 247.863 84.1601 247.147 86.706C246.263 89.8512 247.852 91.6724 251.798 94.8825L254.103 96.7423C261.942 103.067 265.865 108.371 263.402 117.133C260.749 126.57 251.883 129.653 241.923 126.853C232.187 124.116 227.202 117.705 225.837 110.775Z" fill="black"/>
<path d="M73.8762 138.56C80.1523 138.56 85.2401 133.473 85.2401 127.198C85.2401 120.922 80.1523 115.835 73.8762 115.835C67.6001 115.835 62.5123 120.922 62.5123 127.198C62.5123 133.473 67.6001 138.56 73.8762 138.56Z" fill="#61DAFB"/>
<path d="M117.039 108.46C114.846 107.662 112.553 106.865 110.161 106.167C110.759 103.775 111.257 101.383 111.656 99.0906C113.749 85.9341 111.457 76.6648 105.077 73.0767C103.183 71.9803 101.09 71.4819 98.6973 71.4819C91.7195 71.4819 82.8477 76.6648 73.8762 85.3361C64.9047 76.6648 56.0329 71.4819 49.055 71.4819C46.6627 71.4819 44.5693 71.9803 42.6753 73.0767C36.2956 76.7645 34.0029 86.0338 36.0962 99.0906C36.495 101.383 36.9934 103.775 37.5915 106.167C35.1991 106.865 32.9064 107.563 30.7133 108.46C18.2529 113.244 11.4745 119.822 11.4745 127.198C11.4745 134.573 18.3526 141.152 30.7133 145.936C32.9064 146.733 35.1991 147.53 37.5915 148.228C36.9934 150.62 36.495 153.012 36.0962 155.305C34.0029 168.461 36.2956 177.731 42.6753 181.319C44.5693 182.415 46.6627 182.914 49.055 182.914C56.1326 182.914 65.0044 177.731 73.8762 169.059C82.8477 177.731 91.7195 182.914 98.6973 182.914C101.09 182.914 103.183 182.415 105.077 181.319C111.457 177.631 113.749 168.362 111.656 155.305C111.257 153.012 110.759 150.62 110.161 148.228C112.553 147.53 114.846 146.833 117.039 145.936C129.499 141.152 136.278 134.573 136.278 127.198C136.278 119.822 129.499 113.244 117.039 108.46ZM102.286 78.0602C106.373 80.4523 107.768 87.8279 106.074 98.2933C105.775 100.386 105.276 102.579 104.678 104.872C99.4947 103.675 94.0122 102.878 88.2305 102.38C84.8413 97.5956 81.3524 93.3098 77.8635 89.4226C85.2401 82.1467 92.7163 77.1631 98.797 77.1631C100.093 77.1631 101.289 77.4622 102.286 78.0602ZM91.1214 137.165C89.3271 140.354 87.2337 143.544 85.0407 146.733C81.3524 147.032 77.6641 147.132 73.8762 147.132C69.9885 147.132 66.3002 147.032 62.7116 146.733C60.5186 143.544 58.525 140.354 56.7307 137.165C54.8367 133.876 53.0424 130.487 51.4474 127.198C53.0424 123.909 54.8367 120.52 56.7307 117.231C58.525 114.041 60.6183 110.852 62.8113 107.662C66.4996 107.363 70.1879 107.264 73.9758 107.264C77.8635 107.264 81.5518 107.363 85.1404 107.662C87.3334 110.852 89.3271 114.041 91.1214 117.231C93.0153 120.52 94.8096 123.909 96.4046 127.198C94.71 130.487 93.0153 133.776 91.1214 137.165ZM99.3951 133.876C100.89 137.364 102.087 140.753 103.183 144.142C99.7938 144.939 96.2052 145.537 92.4172 146.035C93.6134 144.142 94.9093 142.148 96.0058 140.055C97.202 137.962 98.2985 135.869 99.3951 133.876ZM73.8762 160.886C71.4838 158.295 69.1911 155.504 66.998 152.614C69.2907 152.713 71.5835 152.813 73.8762 152.813C76.1689 152.813 78.4616 152.713 80.7543 152.614C78.5613 155.504 76.2686 158.295 73.8762 160.886ZM55.3351 145.936C51.5471 145.437 47.9585 144.839 44.5693 144.042C45.6658 140.753 46.862 137.264 48.3573 133.776C49.4538 135.769 50.5503 137.862 51.7465 139.856C52.9427 142.049 54.1389 143.942 55.3351 145.936ZM48.3573 120.52C46.862 117.031 45.6658 113.643 44.5693 110.254C47.9585 109.456 51.5471 108.858 55.3351 108.36C54.1389 110.254 52.843 112.247 51.7465 114.34C50.5503 116.433 49.4538 118.526 48.3573 120.52ZM73.8762 93.5091C76.2686 96.1005 78.5613 98.8913 80.7543 101.782C78.4616 101.682 76.1689 101.582 73.8762 101.582C71.5835 101.582 69.2907 101.682 66.998 101.782C69.1911 98.8913 71.4838 96.1005 73.8762 93.5091ZM96.0058 114.44L92.4172 108.46C96.2052 108.958 99.7938 109.556 103.183 110.353C102.087 113.643 100.89 117.131 99.3951 120.619C98.2985 118.526 97.202 116.433 96.0058 114.44ZM41.6785 98.2933C39.9839 87.8279 41.3794 80.4523 45.4665 78.0602C46.4633 77.4622 47.6595 77.1631 48.9554 77.1631C54.9364 77.1631 62.4126 82.047 69.8888 89.4226C66.3999 93.2101 62.911 97.5956 59.5218 102.38C53.7402 102.878 48.2576 103.775 43.0741 104.872C42.476 102.579 42.0772 100.386 41.6785 98.2933ZM17.0567 127.198C17.0567 122.513 22.7387 117.53 32.707 113.842C34.7007 113.045 36.8937 112.347 39.0867 111.749C40.6817 116.732 42.6753 122.015 45.0677 127.297C42.6753 132.58 40.582 137.763 39.0867 142.746C25.3305 138.759 17.0567 132.779 17.0567 127.198ZM45.4665 176.335C41.3794 173.943 39.9839 166.568 41.6785 156.102C41.9775 154.009 42.476 151.816 43.0741 149.524C48.2576 150.72 53.7402 151.517 59.5218 152.016C62.911 156.8 66.3999 161.086 69.8888 164.973C62.5123 172.249 55.036 177.232 48.9554 177.232C47.6595 177.232 46.4633 176.933 45.4665 176.335ZM106.074 156.102C107.768 166.568 106.373 173.943 102.286 176.335C101.289 176.933 100.093 177.232 98.797 177.232C92.816 177.232 85.3397 172.348 77.8635 164.973C81.3524 161.185 84.8413 156.8 88.2305 152.016C94.0122 151.517 99.4947 150.62 104.678 149.524C105.276 151.816 105.675 154.009 106.074 156.102ZM115.045 140.554C113.052 141.351 110.859 142.049 108.666 142.647C107.071 137.663 105.077 132.381 102.685 127.098C105.077 121.816 107.17 116.633 108.666 111.649C122.422 115.636 130.696 121.616 130.696 127.198C130.696 131.882 124.914 136.866 115.045 140.554Z" fill="#61DAFB"/>
<path d="M316.797 94.5111C320.66 79.1583 330.318 71.4819 345.769 71.4819C368.947 71.4819 371.844 88.7538 383.433 91.6325C391.159 93.5516 397.919 90.6729 403.714 82.9965C399.851 98.3493 390.193 106.026 374.742 106.026C351.564 106.026 348.667 88.7538 337.078 85.8752C329.352 83.9561 322.592 86.8347 316.797 94.5111ZM287.825 129.055C291.688 113.702 301.345 106.026 316.797 106.026C339.975 106.026 342.872 123.298 354.461 126.176C362.187 128.095 368.947 125.217 374.742 117.54C370.879 132.893 361.221 140.57 345.769 140.57C322.592 140.57 319.694 123.298 308.105 120.419C300.38 118.5 293.619 121.379 287.825 129.055Z" fill="#44A8B3"/>
<path d="M145.347 38.0404C144.627 38.0404 143.908 38.2007 143.269 38.4417C144.627 39.3267 145.347 40.5324 145.746 41.8993C145.746 42.0604 145.826 42.2216 145.826 42.382C145.826 42.5432 145.906 42.7036 145.906 42.864C145.987 45.1964 145.267 45.518 144.788 46.8849C143.988 48.6531 144.229 50.5834 145.187 52.1107C145.267 52.2718 145.347 52.5136 145.507 52.674C144.468 45.9201 150.061 44.9546 151.1 42.864C151.18 41.0151 149.662 39.8094 148.463 38.9245C147.265 38.2007 146.305 38.0396 145.347 38.0396L145.347 38.0404ZM153.738 39.4862C153.658 40.1294 153.738 39.969 153.658 40.2906C153.658 40.5316 153.658 40.7725 153.578 41.0143C153.498 41.2553 153.498 41.4165 153.417 41.6575C153.337 41.8984 153.258 42.0596 153.178 42.3006C153.098 42.4618 153.018 42.6222 152.938 42.8632C152.858 42.9438 152.778 43.105 152.699 43.1856C152.619 43.2661 152.619 43.3459 152.539 43.4265C152.379 43.5877 152.299 43.8279 152.139 43.9891L151.66 44.4718C151.5 44.633 151.34 44.7934 151.18 44.8732C150.621 45.2762 149.982 45.597 149.422 45.9991C149.262 46.1603 149.023 46.2409 148.863 46.4013C148.703 46.5625 148.543 46.6431 148.384 46.8035L147.905 47.2854C147.745 47.4466 147.584 47.6078 147.504 47.8488C147.345 48.01 147.265 48.251 147.105 48.4113C147.025 48.6531 146.945 48.8135 146.786 49.0545C146.706 49.2963 146.626 49.4575 146.546 49.6976C146.466 49.9394 146.386 50.1804 146.386 50.3408C146.386 50.4214 146.386 50.5826 146.306 50.6632C146.306 50.7438 146.306 50.9041 146.226 50.9847V52.1099C146.226 52.3516 146.226 52.5128 146.306 52.753C146.306 52.9948 146.386 53.156 146.466 53.397C146.546 53.6379 146.626 53.7983 146.707 54.0401C146.786 54.2013 146.866 54.2811 146.866 54.4423L140.793 52.1099C139.791 51.8044 138.778 51.5364 137.757 51.3063C137.197 51.1451 136.638 51.0645 136.078 50.9033C134.493 50.584 132.893 50.3427 131.284 50.1804H131.124C129.526 50.0192 128.008 49.9386 126.411 49.9386C125.212 49.9386 124.093 50.0192 122.975 50.0998C121.376 50.1804 119.779 50.4222 118.18 50.6632L116.981 50.9041C116.183 51.0653 115.384 51.2257 114.584 51.4667C114.185 51.5473 113.786 51.7085 113.386 51.7891C112.987 51.9495 112.587 52.1099 112.267 52.271C111.948 52.4322 111.708 52.5128 111.389 52.6732C111.309 52.6732 111.309 52.6732 111.229 52.7538C110.988 52.9142 110.75 52.9948 110.509 53.1552C110.429 53.1552 110.349 53.2358 110.349 53.2358C110.03 53.397 109.79 53.5581 109.551 53.6379C109.39 53.7185 109.151 53.7991 108.992 53.8797C108.911 53.9595 108.831 53.9595 108.751 54.0401C108.512 54.2013 108.272 54.2811 108.032 54.4415C107.793 54.6027 107.553 54.6833 107.393 54.8444C107.233 55.0048 106.993 55.0854 106.834 55.2458C106.834 55.2458 106.754 55.2458 106.754 55.3264C106.594 55.407 106.434 55.5682 106.275 55.7286L106.195 55.8092C106.035 55.8898 105.954 56.0501 105.795 56.1307C105.715 56.1307 105.715 56.2113 105.635 56.2113C105.476 56.2919 105.395 56.4523 105.236 56.5321C105.236 56.6127 105.156 56.6127 105.156 56.6127L104.676 57.0955L104.596 57.1761L104.117 57.658C104.117 57.658 104.117 57.7386 104.037 57.7386L103.637 58.1408C103.557 58.2214 103.477 58.2214 103.477 58.302L102.998 58.7839C102.998 58.8645 102.918 58.8645 102.918 58.9451L102.279 59.5875L102.199 59.6681C101.8 60.1508 101.32 60.553 100.841 60.9552C100.363 61.3573 99.882 61.7587 99.3229 62.1609C98.7639 62.563 98.2841 62.8846 97.7251 63.2062C97.1661 63.5278 96.6062 63.7687 96.0472 64.0105C95.4874 64.2515 94.9283 64.4925 94.3693 64.6537C93.2504 64.8955 92.1315 65.3774 91.1728 65.4572C91.1728 65.0559 90.9326 65.1356 90.6931 65.1356C90.4536 65.2162 90.2141 65.2162 90.054 65.2968C89.8137 65.3774 89.6543 65.458 89.4148 65.5386C89.1871 65.6129 88.9717 65.721 88.7757 65.8594C88.6155 66.0206 88.376 66.1012 88.2167 66.2624C88.0565 66.4227 87.8162 66.5831 87.6568 66.7443C87.4966 66.9055 87.2572 67.0659 87.0978 67.2263C86.9376 67.3875 86.7774 67.5487 86.618 67.7896C86.4579 68.0306 86.2985 68.191 86.2184 68.4328C86.059 68.594 85.9789 68.835 85.8195 69.0759C85.7394 69.3177 85.5792 69.5579 85.4992 69.7997L85.2597 70.5234C85.1796 70.7644 85.1796 70.9248 85.0995 71.1666V71.2472C85.0194 71.489 85.0194 71.8097 85.0194 71.9709C85.0995 71.8903 85.0995 72.0515 85.0995 72.2119V72.5335C85.0995 72.6947 85.1796 72.855 85.1796 73.0154C85.2597 73.1766 85.2597 73.3378 85.3398 73.4982C85.4191 73.6594 85.4992 73.8198 85.6585 73.981C85.7386 74.1421 85.8988 74.3025 85.9789 74.4629C86.1383 74.6241 86.2977 74.7853 86.4579 74.8651C86.618 75.0263 86.7774 75.1875 86.9368 75.2673C87.5759 75.8298 87.7361 75.991 88.5354 76.473C88.6956 76.5536 88.7749 76.6342 88.9351 76.7147H89.0152V76.8759C89.0152 77.1161 89.0953 77.2773 89.1745 77.5183C89.2546 77.7601 89.3347 78.001 89.4148 78.1614L89.6535 78.6442C89.6535 78.7248 89.7336 78.7248 89.7336 78.8054C89.8137 79.0464 89.9739 79.2067 90.054 79.3679C90.2133 79.5291 90.2934 79.7701 90.4528 79.9305L90.9326 80.4133L91.4115 80.8952H91.4916C91.6518 81.0564 91.8112 81.137 91.9713 81.2982C92.1315 81.4594 92.371 81.5392 92.5304 81.619C92.6906 81.6996 92.93 81.8607 93.1695 81.9413C93.3297 82.0219 93.4899 82.1017 93.7285 82.1017C93.7285 82.1017 93.8086 82.1017 93.8086 82.1823C93.8887 82.1823 94.0489 82.2629 94.129 82.2629C94.0489 83.7096 94.0489 85.0765 94.2091 85.5593C94.4478 86.1218 95.6467 84.4333 96.7656 82.5845C96.6054 84.4333 96.5253 86.6046 96.7656 87.2477C97.0852 87.8909 98.6029 85.8002 100.041 83.5484C118.739 79.2067 135.838 92.2325 137.676 110.646C137.356 107.751 133.84 106.143 132.163 106.545C131.363 108.475 130.005 111.048 127.848 112.576C128.008 110.806 127.928 109.037 127.608 107.269C127.049 109.681 125.93 112.013 124.332 113.942C121.855 114.104 119.299 112.897 118.019 111.048C117.939 110.968 117.859 110.806 117.78 110.726C117.7 110.566 117.62 110.325 117.54 110.163C117.46 110.002 117.38 109.761 117.38 109.601V108.636C117.38 108.475 117.46 108.233 117.541 108.073C117.621 107.912 117.621 107.671 117.701 107.51C117.78 107.349 117.86 107.108 118.019 106.948C118.499 105.66 118.499 104.615 117.62 104.053L117.141 103.811C117.061 103.811 116.901 103.731 116.82 103.731C116.74 103.731 116.661 103.65 116.581 103.65C116.422 103.57 116.182 103.57 116.022 103.489C115.862 103.409 115.622 103.409 115.463 103.409C115.303 103.409 115.062 103.329 114.903 103.329H114.504C114.264 103.329 114.104 103.329 113.944 103.409C113.784 103.409 113.545 103.49 113.385 103.49C113.225 103.571 112.986 103.571 112.826 103.651C112.666 103.731 112.506 103.812 112.266 103.891L111.787 104.133C105.634 108.153 109.31 117.641 113.465 120.375C111.867 120.697 110.269 121.018 109.789 121.34L109.709 121.421C110.828 122.144 112.027 122.707 113.305 123.189C114.983 123.752 116.821 124.234 117.62 124.476C119.777 124.958 122.015 125.119 124.252 124.958C135.918 124.154 145.507 115.149 147.264 103.409C147.344 103.651 147.344 103.891 147.424 104.133C147.504 104.615 147.584 105.098 147.664 105.66C147.745 105.902 147.745 106.143 147.745 106.384V106.465C147.745 106.707 147.824 106.948 147.824 107.189C147.824 107.51 147.904 107.751 147.904 108.073V111.45C147.904 111.691 147.824 111.853 147.824 112.094V112.335C147.824 112.576 147.744 112.817 147.744 113.139C147.664 113.38 147.664 113.621 147.584 113.863V113.943C147.503 114.184 147.503 114.425 147.424 114.666V114.747C147.344 114.989 147.344 115.23 147.264 115.471V115.551L147.025 116.275V116.355C146.944 116.596 146.864 116.918 146.785 117.159C146.705 117.401 146.625 117.642 146.465 117.963C146.385 118.204 146.305 118.526 146.146 118.767C146.066 119.009 145.906 119.25 145.826 119.571C145.746 119.813 145.586 120.054 145.507 120.295C145.507 120.376 145.427 120.456 145.427 120.456C145.427 120.456 145.427 120.537 145.347 120.537C143.669 123.993 141.112 127.049 137.916 129.461C137.675 129.622 137.516 129.783 137.277 129.944C137.197 130.024 137.116 130.024 137.116 130.105C136.956 130.265 136.717 130.346 136.557 130.506L136.637 130.668C137.036 130.587 137.357 130.587 137.756 130.506C138.475 130.426 139.114 130.265 139.833 130.104C139.993 130.104 140.234 130.024 140.393 129.943C140.553 129.943 140.632 129.862 140.792 129.862C140.951 129.862 141.192 129.783 141.352 129.783C141.512 129.702 141.671 129.702 141.831 129.621C144.468 128.979 147.025 128.094 149.502 127.049C145.267 132.838 139.674 137.502 133.121 140.557C136.158 140.316 139.194 139.834 142.15 138.949C152.766 135.812 161.724 128.589 167.08 118.847C165.962 124.958 163.564 130.828 159.969 135.974C162.526 134.285 164.843 132.275 167.001 130.104C172.913 123.913 176.828 115.952 178.107 107.51C178.987 111.691 179.306 116.033 178.907 120.295C198.003 93.5196 180.504 65.7796 173.154 58.4624C173.154 58.3818 173.073 58.3818 173.073 58.3012C173.073 58.6236 173.073 58.9443 172.993 59.2667C172.913 59.9098 172.833 60.4724 172.753 61.035C172.594 61.5983 172.434 62.2415 172.274 62.804C172.114 63.3674 171.874 63.9299 171.635 64.4925C171.396 65.055 171.155 65.6184 170.836 66.1012C170.516 66.5839 170.197 67.1465 169.877 67.6284C169.557 68.1104 169.158 68.5932 168.758 69.0759C168.359 69.5587 167.96 69.9601 167.48 70.4428C167.24 70.6846 167.001 70.9256 166.681 71.086C166.441 71.2472 166.281 71.4084 166.041 71.6485C165.562 72.0515 165.083 72.3723 164.524 72.6939C164.044 73.0162 163.485 73.3378 162.926 73.5788L161.247 74.3025C160.688 74.5435 160.129 74.7047 159.569 74.8651C159.01 75.0263 158.371 75.1875 157.811 75.2673C157.172 75.3479 156.613 75.4284 156.054 75.509C155.654 75.509 155.175 75.5888 154.775 75.5888C154.136 75.5888 153.577 75.5082 153.018 75.5082C152.378 75.4276 151.819 75.347 151.26 75.2665C150.654 75.192 150.062 75.0297 149.502 74.7845C150.061 74.7039 150.7 74.7039 151.26 74.5435C151.899 74.4629 152.458 74.3017 153.018 74.1413C153.577 73.9802 154.216 73.8198 154.696 73.5788L156.374 72.855C156.933 72.6133 157.412 72.2925 157.971 71.9709C158.451 71.6485 159.01 71.2472 159.49 70.9256C159.969 70.5226 160.449 70.1213 160.848 69.7191C161.327 69.3169 161.727 68.835 162.127 68.4328C162.526 67.95 162.926 67.4681 163.245 66.9853C163.326 66.9047 163.326 66.8241 163.406 66.7435C163.644 66.3422 163.964 65.8594 164.204 65.458C164.501 64.938 164.768 64.4008 165.003 63.8493C165.243 63.2868 165.483 62.7234 165.643 62.1609L166.122 60.4724C166.202 59.8293 166.362 59.2667 166.362 58.7033C166.442 58.0602 166.442 57.4976 166.442 56.9343C166.442 56.5329 166.442 56.0501 166.362 55.648C166.282 55.0048 166.202 54.4423 166.122 53.8789C166.041 53.2358 165.881 52.6732 165.722 52.1099C165.562 51.5473 165.322 50.9847 165.163 50.4214C164.923 49.8588 164.683 49.2963 164.444 48.8135C164.124 48.251 163.885 47.7682 163.565 47.2056C163.245 46.7229 162.846 46.2401 162.526 45.7581C162.127 45.2754 161.727 44.8732 161.327 44.3913C161.088 44.1495 160.848 43.9085 160.608 43.7481C159.41 42.7834 158.211 41.979 156.933 41.1747C156.772 41.0941 156.613 41.0135 156.374 40.9329C155.335 40.0496 154.536 39.8078 153.738 39.4862Z" fill="#DF234F"/>
<path d="M267.767 84.8345H287.825V124.95H267.767C262.448 124.95 257.346 122.837 253.584 119.075C249.823 115.314 247.71 110.212 247.71 104.892C247.71 99.5725 249.823 94.4708 253.584 90.7092C257.346 86.9477 262.448 84.8345 267.767 84.8345Z" fill="#F4511E"/>
<path d="M307.883 124.95H287.825V84.8345H307.883C313.202 84.8345 318.304 86.9477 322.066 90.7092C325.827 94.4708 327.94 99.5725 327.94 104.892C327.94 110.212 325.827 115.314 322.066 119.075C318.304 122.837 313.202 124.95 307.883 124.95Z" fill="#FF8A65"/>
<path d="M287.825 145.008C287.825 156.085 296.805 165.065 307.883 165.065C318.96 165.065 327.94 156.085 327.94 145.008C327.94 133.93 318.96 124.95 307.883 124.95C296.805 124.95 287.825 133.93 287.825 145.008Z" fill="#29B6F6"/>
<path d="M267.767 124.95H287.825V165.065H267.767C262.448 165.065 257.346 162.952 253.584 159.19C249.823 155.429 247.71 150.327 247.71 145.008C247.71 139.688 249.823 134.586 253.584 130.825C257.346 127.063 262.448 124.95 267.767 124.95Z" fill="#7C4DFF"/>
<path d="M267.767 165.065H287.825V185.123C287.825 190.443 285.712 195.544 281.95 199.306C278.189 203.067 273.087 205.181 267.767 205.181C262.448 205.181 257.346 203.067 253.584 199.306C249.823 195.544 247.71 190.443 247.71 185.123C247.71 179.803 249.823 174.702 253.584 170.94C257.346 167.178 262.448 165.065 267.767 165.065Z" fill="#00E676"/>
<path d="M350.227 130.515L372.513 231.918C372.513 250.38 357.546 265.347 339.083 265.347H102.848C84.3859 265.347 69.419 250.38 69.419 231.918L47.1327 130.515C47.1327 112.052 62.0996 97.0855 80.5622 97.0855H93.934V94.8569C93.934 82.5485 103.912 72.5706 116.22 72.5706H169.707C182.016 72.5706 191.994 82.5485 191.994 94.8569V97.0855C191.994 104.471 197.98 110.457 205.366 110.457H276.682C284.067 110.457 290.054 104.471 290.054 97.0855H316.797C335.26 97.0855 350.227 112.052 350.227 130.515Z" fill="#D89EA8"/>
<path d="M174.184 198.42L150.12 183.572V178.836L174.184 163.988L178.088 170.26L156.072 183.764V178.58L178.088 192.148L174.184 198.42ZM192.163 206.292L185.315 203.092L209.635 153.172L216.483 156.436L192.163 206.292ZM227.392 198.42L223.808 192.468L245.824 178.9V183.764L223.808 170.26L227.392 164.244L251.776 179.092V183.572L227.392 198.42Z" fill="#262A2E"/>
</svg>
